HIERARCHY
ROOT Hips
{
	OFFSET 0.00000 0.00000 0.00000
	CHANNELS 6 Xposition Yposition Zposition Zrotation Yrotation Xrotation 
	JOINT LHipJoint
	{
		OFFSET 0 0 0
		CHANNELS 3 Zrotation Yrotation Xrotation
		JOINT LeftUpLeg
		{
			OFFSET 1.57314 -1.85774 0.63783
			CHANNELS 3 Zrotation Yrotation Xrotation
			JOINT LeftLeg
			{
				OFFSET 2.57982 -7.08799 0.00000
				CHANNELS 3 Zrotation Yrotation Xrotation
				JOINT LeftFoot
				{
					OFFSET 2.63993 -7.25315 0.00000
					CHANNELS 3 Zrotation Yrotation Xrotation
					JOINT LeftToeBase
					{
						OFFSET 0.16864 -0.46332 2.12791
						CHANNELS 3 Zrotation Yrotation Xrotation
						End Site
						{
							OFFSET 0.00000 -0.00000 1.09718
						}
					}
				}
			}
		}
	}
	JOINT RHipJoint
	{
		OFFSET 0 0 0
		CHANNELS 3 Zrotation Yrotation Xrotation
		JOINT RightUpLeg
		{
			OFFSET -1.56006 -1.85774 0.63784
			CHANNELS 3 Zrotation Yrotation Xrotation
			JOINT RightLeg
			{
				OFFSET -2.54246 -6.98536 0.00000
				CHANNELS 3 Zrotation Yrotation Xrotation
				JOINT RightFoot
				{
					OFFSET -2.65791 -7.30256 0.00000
					CHANNELS 3 Zrotation Yrotation Xrotation
					JOINT RightToeBase
					{
						OFFSET -0.18435 -0.50650 2.16316
						CHANNELS 3 Zrotation Yrotation Xrotation
						End Site
						{
							OFFSET -0.00000 -0.00000 1.11780
						}
					}
				}
			}
		}
	}
	JOINT LowerBack
	{
		OFFSET 0 0 0
		CHANNELS 3 Zrotation Yrotation Xrotation
		JOINT Spine
		{
			OFFSET -0.00136 1.92812 -0.29638
			CHANNELS 3 Zrotation Yrotation Xrotation
			JOINT Spine1
			{
				OFFSET -0.00528 1.96223 -0.02928
				CHANNELS 3 Zrotation Yrotation Xrotation
				JOINT Neck
				{
					OFFSET 0 0 0
					CHANNELS 3 Zrotation Yrotation Xrotation
					JOINT Neck1
					{
						OFFSET -0.01015 1.75586 0.07797
						CHANNELS 3 Zrotation Yrotation Xrotation
						JOINT Head
						{
							OFFSET 0.05540 1.72452 0.04558
							CHANNELS 3 Zrotation Yrotation Xrotation
							End Site
							{
								OFFSET 0.02170 1.79958 0.00864
							}
						}
					}
				}
				JOINT LeftShoulder
				{
					OFFSET 0 0 0
					CHANNELS 3 Zrotation Yrotation Xrotation
					JOINT LeftArm
					{
						OFFSET 3.16292 1.29277 -0.65728
						CHANNELS 3 Zrotation Yrotation Xrotation
						JOINT LeftForeArm
						{
							OFFSET 5.52302 -0.00000 -0.00000
							CHANNELS 3 Zrotation Yrotation Xrotation
							JOINT LeftHand
							{
								OFFSET 3.58675 -0.00000 -0.00000
								CHANNELS 3 Zrotation Yrotation Xrotation
								JOINT LeftFingerBase
								{
									OFFSET 0 0 0
									CHANNELS 3 Zrotation Yrotation Xrotation
									JOINT LeftHandIndex1
									{
										OFFSET 0.53641 -0.00000 -0.00000
										CHANNELS 3 Zrotation Yrotation Xrotation
										End Site
										{
											OFFSET 0.43247 -0.00000 -0.00000
										}
									}
								}
								JOINT LThumb
								{
									OFFSET 0 0 0
									CHANNELS 3 Zrotation Yrotation Xrotation
									End Site
									{
										OFFSET 0.43907 -0.00000 0.43907
									}
								}
							}
						}
					}
				}
				JOINT RightShoulder
				{
					OFFSET 0 0 0
					CHANNELS 3 Zrotation Yrotation Xrotation
					JOINT RightArm
					{
						OFFSET -3.08296 1.43376 -0.52927
						CHANNELS 3 Zrotation Yrotation Xrotation
						JOINT RightForeArm
						{
							OFFSET -5.84780 -0.00000 0.00000
							CHANNELS 3 Zrotation Yrotation Xrotation
							JOINT RightHand
							{
								OFFSET -3.62717 -0.00000 -0.00000
								CHANNELS 3 Zrotation Yrotation Xrotation
								JOINT RightFingerBase
								{
									OFFSET 0 0 0
									CHANNELS 3 Zrotation Yrotation Xrotation
									JOINT RightHandIndex1
									{
										OFFSET -0.65052 -0.00000 -0.00000
										CHANNELS 3 Zrotation Yrotation Xrotation
										End Site
										{
											OFFSET -0.52446 -0.00000 -0.00000
										}
									}
								}
								JOINT RThumb
								{
									OFFSET 0 0 0
									CHANNELS 3 Zrotation Yrotation Xrotation
									End Site
									{
										OFFSET -0.53247 -0.00000 0.53247
									}
								}
							}
						}
					}
				}
			}
		}
	}
}
MOTION
Frames: 6
Frame Time: .0083333
0.1705 18.5208 9.2169 -7.3723 -3.3581 5.1380 0.0000 0.0000 0.0000 -4.8762 -13.5879 -45.8228 9.5832 17.1687 58.0861 -0.0278 -4.8563 5.8697 0.7500 -5.5317 -15.4314 0.0000 0.0000 0.0000 31.2335 0.0522 32.0919 0.0000 0.0000 -0.0000 -4.1106 -17.0845 37.0624 -0.7491 -5.5284 15.4220 8.7854 0.8080 12.9306 0.9776 2.4193 0.6573 -4.3489 0.9439 -6.2526 -0.5193 -0.1027 -9.2204 0.7023 -0.0774 -4.7611 0.2966 -0.0246 0.0463 -0.0000 -0.0000 0.0000 -85.8992 31.0790 37.0168 127.2902 -54.0316 -91.6470 -0.0000 0.0000 -31.9372 35.5948 9.8775 7.0002 -7.1250 0.0000 -0.0000 7.7300 41.9394 -0.5875 -0.0000 -0.0000 0.0000 77.4185 2.1535 46.1128 -131.2057 52.4975 -94.7855 0.0000 -0.0000 -9.0044 -39.8650 27.0360 -20.7863 7.1250 -0.0000 -0.0000 -5.6347 3.4937 -5.9959
0.1597 18.5900 9.7617 -7.3708 -2.9693 5.2755 0.0000 0.0000 0.0000 -4.9853 -14.1338 -44.6730 7.9682 16.0958 52.4482 0.0148 -4.3778 6.7829 0.8018 -5.7152 -15.9602 0.0000 0.0000 0.0000 31.3791 0.0373 33.0837 0.0000 -0.0000 0.0000 -4.4703 -16.3058 38.6065 -0.9290 -6.1402 17.1917 8.7707 0.7902 12.6523 0.9085 2.3577 0.6877 -4.3935 0.9233 -6.0698 -0.4927 -0.2205 -9.5849 0.6013 -0.2365 -4.7049 0.2573 -0.1046 0.1236 -0.0000 -0.0000 0.0000 -86.1940 31.4609 36.1826 128.2247 -53.6869 -92.4016 -0.0000 0.0000 -31.9585 35.0664 9.2821 6.4595 -7.1250 0.0000 -0.0000 7.2320 41.1647 -0.6881 -0.0000 -0.0000 0.0000 77.1139 1.6916 46.9555 -130.8279 52.6561 -94.4855 0.0000 -0.0000 -8.6889 -39.7304 27.0732 -20.7198 7.1250 -0.0000 -0.0000 -5.5494 3.4888 -5.9040
0.1556 18.6515 10.2938 -7.4331 -2.7064 5.3148 0.0000 0.0000 0.0000 -5.0770 -14.5255 -43.2950 6.4938 14.8904 46.9328 0.0671 -3.4721 7.3852 0.7391 -5.4923 -15.3182 0.0000 0.0000 0.0000 32.3382 0.8730 31.3916 -0.0979 -2.0180 5.5555 -4.0608 -14.1734 36.6297 -0.9288 -6.1394 17.1895 8.8124 0.7523 12.6765 0.8778 2.3097 0.7581 -4.4412 0.9031 -6.0115 -0.5251 -0.3148 -9.7470 0.4494 -0.3587 -5.0014 0.2126 -0.1663 0.0577 0.0000 0.0000 0.0000 -86.6393 31.5032 35.3191 128.8005 -53.4680 -92.8650 -0.0000 0.0000 -31.7484 34.9916 8.2382 5.7277 -7.1250 0.0000 -0.0000 7.1296 39.9039 -0.9009 0.0000 0.0000 0.0000 76.7631 1.4884 47.7836 -130.3186 52.8662 -94.0801 0.0000 -0.0000 -8.5404 -39.8242 27.4250 -21.0106 7.1250 -0.0000 -0.0000 -5.5199 3.9241 -5.9114
0.1481 18.6960 10.8182 -7.4309 -2.7044 5.3662 0.0000 0.0000 0.0000 -5.2087 -14.6968 -41.7874 5.2008 13.6064 41.6831 0.1099 -2.4720 7.6825 0.8368 -5.8355 -16.3080 0.0000 0.0000 0.0000 33.1612 1.8327 30.1766 -0.3439 -3.7681 10.4252 -3.6582 -12.4751 34.6549 -1.0528 -6.5245 18.3142 8.5266 0.7853 12.7557 0.9381 2.3218 0.8042 -4.2205 0.9185 -6.0180 -0.6447 -0.2465 -9.9116 0.2900 -0.2569 -5.1473 0.1863 -0.1145 0.0381 -0.0000 -0.0000 0.0000 -87.2720 31.2840 34.4104 129.1479 -53.3334 -93.1439 -0.0000 0.0000 -31.6363 35.4481 7.1958 5.0960 -7.1250 0.0000 -0.0000 7.4851 38.6878 -1.1716 -0.0000 -0.0000 0.0000 76.2451 1.2989 48.7279 -129.4974 53.1962 -93.4239 0.0000 -0.0000 -8.3020 -40.2214 27.6558 -21.4321 7.1250 -0.0000 -0.0000 -5.6895 4.3305 -6.1322
0.1346 18.7207 11.3499 -7.5198 -2.8642 5.4501 0.0000 0.0000 0.0000 -5.2847 -14.6584 -40.3114 4.1547 12.3634 37.0301 0.1423 -1.6017 7.9012 0.7865 -5.6614 -15.8051 0.0000 0.0000 0.0000 33.9583 2.8825 29.3433 -0.6827 -5.2828 14.7168 -3.3723 -11.3248 33.2121 -1.2935 -7.2059 20.3269 8.3105 0.9675 12.6696 0.9296 2.5260 0.7525 -4.1400 1.0232 -6.0063 -0.6013 -0.2182 -9.6792 0.2237 -0.2254 -5.3751 0.1598 -0.0995 -0.0706 -0.0000 -0.0000 0.0000 -87.4102 31.3302 33.9726 129.8252 -53.0658 -93.6862 -0.0000 0.0000 -31.5783 35.2467 6.9250 4.8699 -7.1250 0.0000 -0.0000 7.2967 38.3441 -1.2036 -0.0000 -0.0000 0.0000 76.0193 0.6529 49.3756 -128.4921 53.5859 -92.6169 0.0000 -0.0000 -8.1607 -40.0758 27.8122 -21.4328 7.1250 -0.0000 -0.0000 -5.5698 4.4563 -6.0133
0.1196 18.7296 11.8826 -7.7984 -3.1073 5.5130 0.0000 0.0000 0.0000 -5.2439 -14.3615 -39.0024 3.3258 11.2047 32.9733 0.1478 -1.0507 7.7240 0.9809 -6.3045 -17.6704 0.0000 0.0000 0.0000 34.8934 4.0433 28.5591 -1.1372 -6.7724 19.0429 -3.0630 -10.9137 31.5965 -1.3075 -7.2435 20.4389 8.3285 1.2250 12.5096 0.8856 2.8598 0.6018 -4.2480 1.1802 -6.0315 -0.2454 -0.2836 -8.5492 0.0821 -0.3519 -6.1067 0.0573 -0.1693 -0.4757 -0.0000 -0.0000 0.0000 -87.0920 31.4905 33.9335 130.4926 -52.7949 -94.2187 -0.0000 0.0000 -31.4121 35.5749 7.9891 5.6772 -7.1250 0.0000 -0.0000 7.6345 39.6584 -1.0119 -0.0000 -0.0000 0.0000 76.0624 -0.3432 49.7661 -127.4552 53.9717 -91.7805 0.0000 -0.0000 -8.1976 -39.7209 27.5501 -21.0208 7.1250 -0.0000 -0.0000 -5.4318 4.0301 -5.8256
